<?xml version="1.0" encoding="UTF-8"?>
<!-- Created with Inkscape (http://www.inkscape.org/) -->
<svg width="124.07mm" height="85.346mm" version="1.1" viewBox="0 0 124.07 85.346" xml:space="preserve" xmlns="http://www.w3.org/2000/svg"><g transform="translate(-47.094 -76.543)"><g transform="translate(18.654 -27.345)" stroke-width=".13298"><path d="m87.192 189.15c0.09599-0.0384 0.21069-0.0337 0.25488 0.0105 0.04419 0.0442-0.03435 0.0756-0.17453 0.0698-0.15491-6e-3 -0.18642-0.0379-0.08034-0.0803zm5.1862 0c0.09599-0.0384 0.21069-0.0337 0.25488 0.0105 0.04419 0.0442-0.03435 0.0756-0.17453 0.0698-0.15491-6e-3 -0.18642-0.0379-0.08034-0.0803zm-3.9977-2.6568c0.09142-0.0369 0.24102-0.0369 0.33245 0 0.09142 0.0369 0.01662 0.0671-0.16622 0.0671-0.18284 0-0.25765-0.0302-0.16622-0.0671zm2.6596 0c0.09142-0.0369 0.24102-0.0369 0.33245 0 0.09142 0.0369 0.01662 0.0671-0.16622 0.0671-0.18284 0-0.25765-0.0302-0.16622-0.0671zm-29.239-7.7244c-0.16541-0.21092-0.1607-0.21562 0.05021-0.0502 0.12799 0.10038 0.23271 0.2051 0.23271 0.23271 0 0.10945-0.1092 0.039-0.28292-0.1825zm55.868 0.1825c0-0.0276 0.10472-0.13233 0.23272-0.23271 0.21091-0.16541 0.21561-0.16071 0.0502 0.0502-0.17372 0.2215-0.28292 0.29195-0.28292 0.1825zm-58.048-2.2437-1.194-1.23 1.23 1.194c1.1424 1.109 1.2906 1.2661 1.194 1.2661-0.01981 0-0.57333-0.55352-1.23-1.23zm60.375 0.0332c0.6552-0.65825 1.2212-1.1968 1.2578-1.1968 0.0366 0-0.46957 0.53856-1.1248 1.1968-0.65519 0.65824-1.2212 1.1968-1.2578 1.1968-0.0366 0 0.46958-0.53856 1.1248-1.1968zm-56.732-0.49867c-0.16541-0.21091-0.1607-0.21562 0.05021-0.0502 0.22151 0.17372 0.29195 0.28292 0.1825 0.28292-0.02761 0-0.13233-0.10472-0.23271-0.23271zm52.942 0.1825c0-0.0276 0.10472-0.13233 0.23271-0.23271 0.21092-0.16541 0.21562-0.1607 0.0502 0.0502-0.17372 0.22151-0.28292 0.29195-0.28292 0.1825zm-58.66-1.9112c-0.16541-0.21091-0.1607-0.21562 0.05021-0.0502 0.12799 0.10038 0.23271 0.2051 0.23271 0.23271 0 0.10945-0.1092 0.039-0.28292-0.1825zm64.378 0.1825c0-0.0276 0.10472-0.13233 0.23271-0.23271 0.21091-0.16541 0.21562-0.1607 0.0502 0.0502-0.17372 0.22151-0.28292 0.29195-0.28292 0.1825zm-61.852-1.6453c-0.16541-0.21091-0.1607-0.21562 0.05021-0.0502 0.12799 0.10038 0.23271 0.2051 0.23271 0.23271 0 0.10945-0.1092 0.039-0.28292-0.1825zm59.325 0.1825c0-0.0276 0.10472-0.13233 0.23271-0.23271 0.21092-0.16541 0.21562-0.1607 0.0502 0.0502-0.17372 0.22151-0.28292 0.29195-0.28292 0.1825zm-72.197-24.096c0.0064-0.15492 0.03789-0.18642 0.08034-0.0803 0.03841 0.096 0.03369 0.21068-0.01049 0.25487-0.04419 0.0442-0.07562-0.0343-0.06984-0.17453zm85.239 0c6e-3 -0.15492 0.0379-0.18642 0.0803-0.0803 0.0384 0.096 0.0337 0.21068-0.0105 0.25487-0.0442 0.0442-0.0756-0.0343-0.0698-0.17453zm-82.569-1.2522c0-0.18284 0.03018-0.25764 0.06707-0.16622 0.03689 0.0914 0.03689 0.24102 0 0.33245-0.03689 0.0914-0.06707 0.0166-0.06707-0.16623zm79.92 0c0-0.18284 0.0302-0.25764 0.0671-0.16622 0.0369 0.0914 0.0369 0.24102 0 0.33245-0.0369 0.0914-0.0671 0.0166-0.0671-0.16623zm-79.92-2.6596c0-0.18285 0.03018-0.25765 0.06707-0.16622 0.03689 0.0914 0.03689 0.24102 0 0.33244-0.03689 0.0914-0.06707 0.0166-0.06707-0.16622zm79.92 0c0-0.18285 0.0302-0.25765 0.0671-0.16622 0.0369 0.0914 0.0369 0.24102 0 0.33244-0.0369 0.0914-0.0671 0.0166-0.0671-0.16622zm-82.59-1.2744c0.0064-0.15491 0.03789-0.18642 0.08034-0.0803 0.03841 0.096 0.03369 0.21069-0.01049 0.25488-0.04419 0.0442-0.07562-0.0344-0.06984-0.17454zm85.239 0c6e-3 -0.15491 0.0379-0.18642 0.0803-0.0803 0.0384 0.096 0.0337 0.21069-0.0105 0.25488-0.0442 0.0442-0.0756-0.0344-0.0698-0.17454zm-72.484-23.776c0-0.0276 0.10472-0.13233 0.23271-0.23271 0.21091-0.16541 0.21562-0.16071 0.05021 0.0502-0.17372 0.2215-0.28292 0.29195-0.28292 0.1825zm59.557-0.1825c-0.16541-0.21092-0.16071-0.21562 0.0502-0.0502 0.22151 0.17372 0.29196 0.28292 0.18251 0.28292-0.0276 0-0.13233-0.10472-0.23271-0.23271zm-62.084-1.2803c0-0.0276 0.10472-0.13233 0.23271-0.23271 0.21091-0.16541 0.21562-0.16071 0.05021 0.0502-0.17372 0.22151-0.28292 0.29196-0.28292 0.18251zm64.61-0.18251c-0.16541-0.21091-0.16071-0.21561 0.0502-0.0502 0.22151 0.17372 0.29195 0.28292 0.18251 0.28292-0.0276 0-0.13234-0.10472-0.23271-0.23272zm-62.416-2.1609c0.65519-0.65825 1.2212-1.1968 1.2577-1.1968 0.03657 0-0.46958 0.53856-1.1248 1.1968-0.65519 0.65824-1.2212 1.1968-1.2577 1.1968-0.03657 0 0.46958-0.53856 1.1248-1.1968zm60.369-0.0332-1.194-1.23 1.23 1.194c1.1424 1.109 1.2906 1.2661 1.194 1.2661-0.0198 0-0.57333-0.55352-1.23-1.23zm-56.845 0.64793c0-0.0276 0.10472-0.13233 0.23271-0.23271 0.21091-0.16541 0.21562-0.16071 0.05021 0.0502-0.17372 0.2215-0.28292 0.29195-0.28292 0.1825zm53.174-0.1825c-0.16541-0.21092-0.16071-0.21562 0.0502-0.0502 0.2215 0.17372 0.29195 0.28292 0.1825 0.28292-0.0276 0-0.13233-0.10472-0.23271-0.23271zm-54.637-2.3441c0-0.0276 0.10472-0.13233 0.23271-0.23271 0.21091-0.16541 0.21562-0.1607 0.05021 0.0502-0.17372 0.22151-0.28292 0.29195-0.28292 0.1825zm56.1-0.1825c-0.16541-0.21091-0.1607-0.21562 0.0502-0.0502 0.22151 0.17372 0.29195 0.28292 0.1825 0.28292-0.0276 0-0.13233-0.10472-0.23271-0.23271zm-29.404-7.7011c0.09142-0.0369 0.24102-0.0369 0.33245 0 0.09142 0.0369 0.01662 0.0671-0.16622 0.0671-0.18284 0-0.25765-0.0302-0.16622-0.0671zm2.6596 0c0.09142-0.0369 0.24102-0.0369 0.33245 0 0.09142 0.0369 0.01662 0.0671-0.16622 0.0671-0.18284 0-0.25765-0.0302-0.16622-0.0671zm-3.8481-2.6623c0.09599-0.0384 0.21069-0.0337 0.25488 0.0105 0.04419 0.0442-0.03435 0.0756-0.17453 0.0699-0.15491-6e-3 -0.18642-0.0379-0.08034-0.0803zm5.1862 0c0.09599-0.0384 0.21069-0.0337 0.25488 0.0105 0.04419 0.0442-0.03435 0.0756-0.17453 0.0699-0.15491-6e-3 -0.18642-0.0379-0.08034-0.0803z" fill="#f5cece"/><path d="m61.614 174.72-0.65989-0.69814 0.69814 0.65989c0.64872 0.61319 0.75912 0.73638 0.65989 0.73638-0.02103 0-0.3352-0.31416-0.69814-0.69813zm56.388 0.0332c0.36019-0.36569 0.68481-0.66489 0.72138-0.66489 0.0366 0-0.22821 0.2992-0.5884 0.66489s-0.68482 0.66489-0.72139 0.66489c-0.0366 0 0.22822-0.2992 0.58841-0.66489zm-56.383-56.383c0.36019-0.36569 0.68481-0.66489 0.72138-0.66489 0.03657 0-0.22821 0.2992-0.5884 0.66489s-0.68481 0.66489-0.72138 0.66489c-0.03657 0 0.22821-0.2992 0.5884-0.66489zm56.378-0.0332-0.65989-0.69814 0.69813 0.65989c0.64872 0.61319 0.75912 0.73638 0.6599 0.73638-0.021 0-0.3352-0.31416-0.69814-0.69813z" fill="#efafaf"/><path d="m87.857 189.15c0.09599-0.0384 0.21069-0.0337 0.25488 0.0105 0.04419 0.0442-0.03435 0.0756-0.17453 0.0698-0.15491-6e-3 -0.18642-0.0379-0.08034-0.0803zm3.8564 0c0.09599-0.0384 0.21069-0.0337 0.25488 0.0105 0.04419 0.0442-0.03435 0.0756-0.17453 0.0698-0.15491-6e-3 -0.18642-0.0379-0.08034-0.0803zm-30.444-10.913c-0.16541-0.21091-0.1607-0.21561 0.05021-0.0502 0.12799 0.10038 0.23271 0.2051 0.23271 0.23272 0 0.10944-0.1092 0.039-0.28292-0.18251zm56.932 0.18251c0-0.0276 0.10472-0.13234 0.23271-0.23272 0.21091-0.1654 0.21561-0.1607 0.0502 0.0502-0.17372 0.22151-0.28292 0.29195-0.28292 0.18251zm-55.664-2.7756-0.25332-0.29921 0.2992 0.25333c0.28118 0.23806 0.35974 0.34508 0.25332 0.34508-0.02523 0-0.15988-0.13464-0.2992-0.2992zm54.534 0.0332c0.13238-0.14628 0.27061-0.26596 0.30718-0.26596 0.0366 0-0.0418 0.11968-0.1742 0.26596-0.13238 0.14628-0.27061 0.26596-0.30718 0.26596-0.0366 0 0.0418-0.11968 0.1742-0.26596zm-58.993-0.63165c-0.16541-0.21091-0.1607-0.21561 0.05021-0.0502 0.12799 0.10037 0.23271 0.20509 0.23271 0.23271 0 0.10944-0.1092 0.039-0.28292-0.18251zm63.315 0.18251c0-0.0276 0.10472-0.13234 0.23271-0.23271 0.21091-0.16541 0.21561-0.16071 0.0502 0.0502-0.17372 0.22151-0.28292 0.29195-0.28292 0.18251zm-60.717-1.4458-0.25332-0.2992 0.2992 0.25332c0.28118 0.23806 0.35974 0.34508 0.25332 0.34508-0.02523 0-0.15988-0.13464-0.2992-0.2992zm58.257 0.0332c0.13238-0.14627 0.27061-0.26595 0.30717-0.26595 0.0366 0-0.0418 0.11968-0.17419 0.26595-0.13238 0.14628-0.27061 0.26596-0.30718 0.26596-0.0366 0 0.0418-0.11968 0.1742-0.26596zm-71.731-25.343c0.0064-0.15492 0.03789-0.18643 0.08034-0.0804 0.03841 0.096 0.03369 0.21069-0.01049 0.25488-0.04419 0.0442-0.07562-0.0343-0.06984-0.17453zm85.239 0c6e-3 -0.15492 0.0379-0.18643 0.0803-0.0804 0.0384 0.096 0.0337 0.21069-0.0105 0.25488-0.0442 0.0442-0.0756-0.0343-0.0698-0.17453zm-85.239-3.8564c0.0064-0.15491 0.03789-0.18642 0.08034-0.0803 0.03841 0.096 0.03369 0.21069-0.01049 0.25488-0.04419 0.0442-0.07562-0.0343-0.06984-0.17454zm85.239 0c6e-3 -0.15491 0.0379-0.18642 0.0803-0.0803 0.0384 0.096 0.0337 0.21069-0.0105 0.25488-0.0442 0.0442-0.0756-0.0343-0.0698-0.17454zm-71.752-25.321c0.13238-0.14628 0.27061-0.26596 0.30718-0.26596 0.03657 0-0.04182 0.11968-0.1742 0.26596s-0.27061 0.26596-0.30718 0.26596c-0.03657 0 0.04182-0.11968 0.1742-0.26596zm58.232-0.0332-0.25332-0.2992 0.2992 0.25333c0.16456 0.13932 0.2992 0.27396 0.2992 0.2992 0 0.10641-0.10702 0.0279-0.34508-0.25333zm-60.958-1.0808c0-0.0276 0.10472-0.13234 0.23271-0.23272 0.21091-0.1654 0.21562-0.1607 0.05021 0.0502-0.17372 0.22151-0.28292 0.29195-0.28292 0.18251zm63.547-0.18251c-0.16541-0.21091-0.1607-0.21561 0.0502-0.0502 0.22151 0.17372 0.29195 0.28292 0.1825 0.28292-0.0276 0-0.13233-0.10472-0.23271-0.23271zm-58.959-0.56516c0.13238-0.14627 0.27061-0.26595 0.30718-0.26595 0.03657 0-0.04182 0.11968-0.1742 0.26595-0.13238 0.14628-0.27061 0.26596-0.30718 0.26596-0.03657 0 0.04182-0.11968 0.1742-0.26596zm54.508-0.0332-0.25333-0.2992 0.29921 0.25332c0.28117 0.23806 0.35973 0.34508 0.25332 0.34508-0.0252 0-0.15988-0.13464-0.2992-0.2992zm-55.905-2.4107c0-0.0276 0.10472-0.13234 0.23271-0.23272 0.21091-0.1654 0.21562-0.1607 0.05021 0.0502-0.17372 0.22151-0.28292 0.29195-0.28292 0.18251zm57.164-0.18251c-0.16541-0.21091-0.1607-0.21561 0.0502-0.0502 0.12799 0.10038 0.23271 0.2051 0.23271 0.23272 0 0.10944-0.1092 0.039-0.28292-0.18251zm-30.46-10.895c0.09599-0.0384 0.21069-0.0337 0.25488 0.0105 0.04419 0.0442-0.03435 0.0756-0.17453 0.0699-0.15491-6e-3 -0.18642-0.0379-0.08034-0.0803zm3.8564 0c0.09599-0.0384 0.21069-0.0337 0.25488 0.0105 0.04419 0.0442-0.03435 0.0756-0.17453 0.0699-0.15491-6e-3 -0.18642-0.0379-0.08034-0.0803z" fill="#e98e8e"/><path d="m88.317 189.15c0.12938-0.0337 0.3089-0.0315 0.39894 5e-3 0.09003 0.0364-0.01583 0.064-0.23524 0.0613-0.21942-3e-3 -0.29308-0.0325-0.16369-0.0662zm2.7925 0c0.12938-0.0337 0.3089-0.0315 0.39894 5e-3 0.09003 0.0364-0.01583 0.064-0.23524 0.0613-0.21941-3e-3 -0.29308-0.0325-0.16369-0.0662zm-30.301-11.377-0.25332-0.2992 0.2992 0.25332c0.28118 0.23806 0.35974 0.34508 0.25332 0.34508-0.02523 0-0.15988-0.13464-0.2992-0.2992zm57.991 0.0332c0.13238-0.14627 0.27061-0.26595 0.30718-0.26595 0.0366 0-0.0418 0.11968-0.1742 0.26595-0.13238 0.14628-0.27061 0.26596-0.30718 0.26596-0.0366 0 0.0418-0.11968 0.1742-0.26596zm-55.801-1.6955c-0.16541-0.21091-0.1607-0.21562 0.05021-0.0502 0.12799 0.10038 0.23271 0.2051 0.23271 0.23271 0 0.10945-0.1092 0.039-0.28292-0.1825zm53.474 0.1825c0-0.0276 0.10472-0.13233 0.23271-0.23271 0.21091-0.16541 0.21562-0.1607 0.0502 0.0502-0.17372 0.22151-0.28292 0.29195-0.28292 0.1825zm-57.925-0.7809-0.25332-0.2992 0.2992 0.25332c0.28118 0.23806 0.35974 0.34508 0.25332 0.34508-0.02523 0-0.15988-0.13464-0.2992-0.2992zm62.512 0.0332c0.13238-0.14627 0.27061-0.26596 0.30718-0.26596 0.0366 0-0.0418 0.11969-0.1742 0.26596-0.13238 0.14628-0.27061 0.26596-0.30718 0.26596-0.0366 0 0.0418-0.11968 0.1742-0.26596zm-60.855-2.2274c-0.16541-0.21091-0.1607-0.21561 0.05021-0.0502 0.12799 0.10038 0.23271 0.2051 0.23271 0.23271 0 0.10945-0.1092 0.039-0.28292-0.18251zm59.059 0.18251c0-0.0276 0.10472-0.13233 0.23272-0.23271 0.21091-0.16541 0.21561-0.16071 0.0502 0.0502-0.17372 0.22151-0.28292 0.29196-0.28292 0.18251zm-72.048-25.548c0.0027-0.21941 0.03251-0.29307 0.06623-0.16369 0.03372 0.12939 0.0315 0.30891-0.0049 0.39894-0.03643 0.09-0.06401-0.0158-0.0613-0.23525zm85.239 0c3e-3 -0.21941 0.0325-0.29307 0.0662-0.16369 0.0337 0.12939 0.0315 0.30891-5e-3 0.39894-0.0364 0.09-0.064-0.0158-0.0613-0.23525zm-85.239-2.7925c0.0027-0.21941 0.03251-0.29308 0.06623-0.16369 0.03372 0.12938 0.0315 0.3089-0.0049 0.39893-0.03643 0.09-0.06401-0.0158-0.0613-0.23524zm85.239 0c3e-3 -0.21941 0.0325-0.29308 0.0662-0.16369 0.0337 0.12938 0.0315 0.3089-5e-3 0.39893-0.0364 0.09-0.064-0.0158-0.0613-0.23524zm-72.366-25.25c0-0.0276 0.10472-0.13233 0.23271-0.23271 0.21091-0.16541 0.21562-0.1607 0.05021 0.0502-0.17372 0.22151-0.28292 0.29195-0.28292 0.1825zm59.291-0.1825c-0.16541-0.21091-0.16071-0.21562 0.0502-0.0502 0.2215 0.17372 0.29195 0.28292 0.1825 0.28292-0.0276 0-0.13233-0.10472-0.23271-0.23271zm-60.821-2.1609c0.13238-0.14627 0.27061-0.26596 0.30718-0.26596 0.03657 0-0.04182 0.11969-0.1742 0.26596-0.13238 0.14628-0.27061 0.26596-0.30718 0.26596-0.03657 0 0.04182-0.11968 0.1742-0.26596zm62.487-0.0332-0.25333-0.2992 0.29921 0.25332c0.16456 0.13932 0.2992 0.27397 0.2992 0.2992 0 0.10642-0.10702 0.0279-0.34508-0.25332zm-58.165-0.4159c0-0.0276 0.10472-0.13233 0.23271-0.23271 0.21091-0.16541 0.21562-0.16071 0.05021 0.0502-0.17372 0.22151-0.28292 0.29196-0.28292 0.18251zm53.706-0.18251c-0.1654-0.21091-0.1607-0.21561 0.0502-0.0502 0.12799 0.10038 0.23271 0.2051 0.23271 0.23271 0 0.10945-0.1092 0.039-0.28292-0.18251zm-55.767-1.629c0.13238-0.14628 0.27061-0.26596 0.30718-0.26596 0.03657 0-0.04182 0.11968-0.1742 0.26596-0.13238 0.14628-0.27061 0.26596-0.30718 0.26596-0.03657 0 0.04182-0.11968 0.1742-0.26596zm57.966-0.0332-0.25333-0.29921 0.2992 0.25333c0.28118 0.23806 0.35974 0.34508 0.25333 0.34508-0.0252 0-0.15988-0.13464-0.2992-0.2992zm-30.47-11.362c0.12938-0.0337 0.3089-0.0315 0.39894 5e-3 0.09003 0.0364-0.01583 0.064-0.23524 0.0613-0.21942-3e-3 -0.29308-0.0325-0.16369-0.0662zm2.7925 0c0.12938-0.0337 0.3089-0.0315 0.39894 5e-3 0.09003 0.0364-0.01583 0.064-0.23524 0.0613-0.21941-3e-3 -0.29308-0.0325-0.16369-0.0662z" fill="#e05f5f"/><path d="m87.114 189.09c-5.7634-0.36649-11.951-2.0976-16.915-4.7319-7.8543-4.1686-13.866-10.176-18.133-18.123-2.4737-4.606-4.355-11.193-4.671-16.356-0.04253-0.69481-0.10955-1.6672-0.14892-2.1609l-0.07159-0.8976h2.6757v0.78378c0 2.0905 0.56481 5.858 1.3278 8.8572 1.4358 5.6437 3.7985 10.359 7.562 15.093 1.2906 1.6233 4.5135 4.8462 6.1368 6.1368 2.6512 2.1078 5.7855 4.0703 8.3111 5.2038 5.1924 2.3303 11.331 3.686 16.689 3.686 6.4563 0 13.989-1.9722 19.415-5.0834 3.2961-1.8899 6.0177-3.9801 8.7829-6.7453 5.3262-5.3262 8.6958-11.196 10.501-18.291 0.76299-2.9991 1.3278-6.7667 1.3278-8.8572v-0.78378h2.6757l-0.0716 0.8976c-0.0394 0.49368-0.10639 1.4661-0.14892 2.1609-0.31897 5.2104-2.1366 11.564-4.6782 16.353-4.6454 8.7526-12.018 15.623-20.849 19.428-4.6014 1.9827-9.4117 3.1198-14.561 3.4422-2.4115 0.15097-2.5981 0.15053-5.156-0.0121zm-39.745-45.361c0.27009-5.4575 2.0602-11.871 4.7037-16.852 4.6454-8.7526 12.018-15.623 20.849-19.428 10.789-4.6488 22.982-4.6712 33.776-0.062 9.8106 4.1891 18.061 12.413 22.283 22.212 1.929 4.4768 3.1816 9.6793 3.4018 14.129l0.0872 1.762h-2.5226l-0.15947-1.8013c-0.52269-5.9039-2.3449-11.973-4.9692-16.55-1.8899-3.2961-3.9801-6.0177-6.7453-8.7829-5.3262-5.3262-11.196-8.6958-18.291-10.501-6.9528-1.7688-12.861-1.7688-19.814 0-5.6437 1.4358-10.359 3.7985-15.093 7.562-1.6233 1.2906-4.8462 4.5135-6.1368 6.1368-1.3152 1.6543-2.8107 3.8486-3.8064 5.5851-2.6242 4.5768-4.4465 10.646-4.9692 16.55l-0.15948 1.8013h-2.5226z" fill="#cf0000"/><path d="m28.441 146.16v-0.66489h124.07v1.3298h-124.07zm123.94 0v-0.53192h-123.8v1.0638h123.8z" fill="#282727"/><path d="m28.574 146.16v-0.53192h123.8v1.0638h-123.8z"/></g></g></svg>
